<?xml version="1.0" encoding="UTF-8"?>
<!DOCTYPE svg PUBLIC "-//W3C//DTD SVG 1.1//EN" "http://www.w3.org/Graphics/SVG/1.1/DTD/svg11.dtd">
<!-- Creator: CorelDRAW 2018 (64 Bit) -->
<svg xmlns="http://www.w3.org/2000/svg" xml:space="preserve" width="97.7267mm" height="48.6304mm" version="1.1" style="shape-rendering:geometricPrecision; text-rendering:geometricPrecision; image-rendering:optimizeQuality; fill-rule:evenodd; clip-rule:evenodd"
viewBox="0 0 14366.94 7149.22"
 xmlns:xlink="http://www.w3.org/1999/xlink">
 <defs>
  <style type="text/css">
   <![CDATA[
    .str2 {stroke:#B1E2FE;stroke-width:29.4;stroke-miterlimit:22.9256}
    .str1 {stroke:#373435;stroke-width:14.7;stroke-linejoin:round;stroke-miterlimit:22.9256}
    .str0 {stroke:#373435;stroke-width:11.2;stroke-linejoin:round;stroke-miterlimit:22.9256}
    .fil6 {fill:none}
    .fil2 {fill:#FEFEFE}
    .fil12 {fill:#FEFEFE}
    .fil3 {fill:#373435}
    .fil4 {fill:#373435}
    .fil5 {fill:#373435}
    .fil11 {fill:#ED3237}
    .fil0 {fill:#E4F2FB}
    .fil10 {fill:#231F20}
    .fil7 {fill:#79C8F9}
    .fil8 {fill:#B1E2FE}
    .fil9 {fill:#B1E2FE}
    .fil1 {fill:white}
   ]]>
  </style>
 </defs>
 <g id="Camada_x0020_1">
  <metadata id="CorelCorpID_0Corel-Layer"/>
  <path class="fil0" d="M7959.48 4273.5c-27.21,36.36 -37,25.49 -29.92,76.84l19.24 0.03c119.3,-81.77 193.95,-93.95 371.85,-122.21 230.06,-36.55 924.73,-138.35 1114.67,-197.54 83.5,-26.01 103.98,-42.69 163.54,-74.55 14.89,-24.51 26.54,-29.53 33.3,-59.14 -100.91,107.11 -635.88,166.67 -831.67,198.26 -196.47,31.71 -774.54,76.5 -841.01,178.31z"/>
  <path class="fil1" d="M7959.48 4273.5c66.46,-101.81 644.54,-146.6 841.01,-178.31 195.79,-31.59 730.76,-91.15 831.67,-198.26 -6.76,29.61 -18.41,34.64 -33.3,59.14 34.4,-14.85 61.41,-28.36 60.04,-61.54 -1.31,-31.64 -13.82,-67.82 -49.29,-85.15 21.14,38.81 35.53,50.7 -12.32,78 -125.65,71.74 -654.02,140.62 -804.2,161.34 -182.65,25.23 -329.08,39.69 -504.31,63.55 -136.78,18.63 -356.99,54.91 -360.22,160.01 16.13,8.94 -12.16,10.29 30.92,1.21z"/>
  <path class="fil2" d="M2256.79 4770.58c265.74,-15.77 503.85,-65.91 801.83,-81.91 245.29,-13.17 549.28,8.32 785.86,-9.72 346.9,-26.49 696.75,-80.8 881.8,-76.55 394.26,-12.78 521.93,63.08 838.36,120.39 284.06,51.44 614.02,61.17 934.76,56.33 304.11,-4.59 624.05,-35.71 904.5,-76.83 166.45,-24.42 573.92,-89.31 675.43,-197.8l33.64 -30.52 -19.14 -29.05c-14.79,-10.83 -17.86,-9.95 -40.93,-16.49 13.48,27.83 6.82,36.33 -43.85,56.67l-258.46 78.18c-614.15,140.13 -1594.5,179.41 -2232.06,72.37 -132.84,-22.3 -250.58,-63.13 -380.44,-83.24 -485.83,-75.21 -905.55,39.15 -1338.98,63.39 -155.55,8.7 -315.19,12.05 -459.62,-14.54 -562.82,-103.58 -1707.4,381.7 -2771.61,14.85 -77.11,-34.08 -168.3,-78.2 -190.04,-122.95l-22.07 17.77c-147,223.02 534.22,311.47 1098.78,316.62 396.33,3.63 686.44,-50.12 802.23,-56.98z"/>
  <path class="fil0" d="M2307.99 4847.7c265.75,-15.77 503.85,-65.91 801.83,-81.91 245.29,-13.17 549.28,8.34 785.86,-9.7 346.9,-26.49 696.75,-80.81 881.8,-76.55 394.26,-12.78 521.93,63.08 838.36,120.39 284.06,51.44 614.02,61.17 934.76,56.33 304.12,-4.59 624.06,-35.71 904.5,-76.84 166.45,-24.42 573.93,-89.29 675.43,-197.79l33.64 -30.52 -19.14 -29.05c-14.79,-10.85 -17.86,-9.95 -40.93,-16.51 13.48,27.84 6.82,36.33 -43.85,56.69l-258.46 78.17c-614.15,140.15 -1594.5,179.41 -2232.06,72.39 -132.84,-22.3 -250.57,-63.13 -380.44,-83.25 -485.83,-75.2 -905.55,39.15 -1338.98,63.41 -155.55,8.69 -315.19,12.05 -459.6,-14.54 -562.83,-103.6 -1707.42,381.7 -2771.62,14.85 -77.11,-34.08 -168.3,-78.21 -190.04,-122.96l-22.07 17.77c-147,223.02 534.22,311.49 1098.78,316.63 396.33,3.62 686.44,-50.12 802.23,-57z"/>
  <path class="fil3 str0" d="M533.97 5580.38c0,0 552.2,-100.01 552.2,-100.01 0,0 -2.38,-478.95 -2.38,-478.95 0,0 -1078.21,262.99 -1078.21,262.99 0,0 0,117.77 0,294.04 0,176.03 0,411.06 0,645.57 0,235.03 0,470.07 0,646.09 0,176.27 0,293.52 0,293.52 0,0 1078.21,-5.75 1078.21,-5.75 0,0 2.38,-482.07 2.38,-482.07 0,0 -552.2,30.81 -552.2,30.81 0,0 0,-338.98 0,-338.98 0,0 472.45,-44.65 472.45,-44.65 0,0 0,-478.45 0,-478.45 0,0 -472.45,69.23 -472.45,69.23 0,0 0,-313.4 0,-313.4zm6300.63 520.49c-30.56,123.36 -57.07,242.69 -59.54,382.1 42.12,30.3 87.15,56.85 133.9,78.59 -7.72,76.45 -13.33,131.55 -14,137.59 110.68,59.8 234.45,116.74 405.81,69.99 5.35,-54.56 10.88,-109.16 16.42,-163.74 44.65,-13.73 87.71,-34.77 128.08,-64.13 224.18,-163.02 405.85,-278.28 569.93,-277.57 3.69,-133.21 7.41,-266.46 11.1,-399.69 -101.85,-6.67 -201.55,29.01 -305.09,85.71 53.5,-32.02 105.85,-58.19 157.95,-75.28 -32.12,-215.71 -66.64,-444.97 -91.63,-620.21 -24.99,-175.24 -44.04,-296.93 -44.04,-296.93 0,0 -616.45,-40.75 -616.45,-40.75 0,0 -21.42,137.66 -51.17,343.68 -29.74,206.05 -71.86,481.49 -111.86,757.34 -1.04,7.14 -8.09,77.56 -17.39,170.59 -39.24,-21.68 -76.77,-50.67 -112.01,-87.28zm675.75 -18.17c-24.99,16.91 -50.35,34.12 -76.2,51.48 -24.61,16.54 -49.29,31.08 -73.95,43.69 12.05,-118.34 24.65,-236.7 36.97,-354.89 19.26,-184.6 41.65,-368.22 41.65,-368.22 0,0 20.55,185.66 39.27,371.35 4.78,47.31 25.76,199.54 32.25,256.58zm-862.88 -517.02c73.8,-76.81 121.59,-142.6 195.14,-228.21 0,-183.88 -1.57,-268.62 -2.4,-452.53 -110.67,-20.88 -299.89,-49.35 -408.19,-52.48 -232.07,-4.7 -389.33,143.84 -486.74,364.57 -48.95,110.91 -83.31,240.26 -104.72,377.61 -21.42,137.37 -32.15,283.09 -30.95,427.23 -1.21,144.95 9.53,291.46 30.95,429.07 21.4,137.62 57.98,266.81 107.1,377.88 98.44,222.65 241.82,326.28 470.3,326.28 108.32,0 309.58,3.62 422.25,-2.29 0,-161.39 1.19,-312.22 2.4,-473.61 0.18,-19.7 0.19,-33.94 0,-46.43 -88.07,27.43 -242.79,67.58 -347.51,66.8 -88.07,-0.51 -149.97,-65.57 -188.04,-182.28 -38.08,-116.74 -53.56,-285.95 -52.37,-493.84 -1.19,-206.57 15.44,-374.5 54.75,-490.43 39.22,-115.7 101.16,-179.16 189.22,-177.08 10.72,0 133.75,0.79 145.64,1.84 0,129.53 1.98,98.63 3.16,227.9zm-5482.32 104.2c205.87,172.89 411.76,347.84 617.64,524.64 -58.29,1.84 -115.43,3.93 -172.55,5.75 0,156.95 1.19,268.21 1.19,268.21 0,181.24 24.98,237.11 117.81,233.73 92.82,-3.4 122.58,-62.69 122.58,-247.05 0,0 -1.19,-81.47 -1.19,-203.17 0,-121.7 0,-284.64 0,-447.36 0,-162.7 -1.19,-325.13 -1.19,-446.81 0,-121.7 0,-203.2 0,-203.2 0,0 445.09,-65.29 445.09,-65.29 0,0 0,87.22 0,217.8 0,130.58 0,305.03 0,479.23 0,174.71 0,349.15 0,479.98 0,130.58 0,217.8 0,217.8 0,214.93 -57.41,378.47 -154.7,487.33 -96.63,108.13 -238.04,161.92 -407.02,161.92 -171.37,0 -314.24,-51.45 -414.15,-150.95 -98.79,-98.39 -154.71,-244.7 -154.71,-440.83l0 -471.91 1.19 -399.81zm1916.78 -1012.92c0,0 -659.29,94.54 -659.29,94.54 0,0 0,148.85 0,372.14 0,223.28 0,521.24 0,818.69 0,297.71 0,595.69 0,818.97 0,223.03 0,371.88 0,371.88 0,0 526.01,-1.84 526.01,-1.84 0,0 0,-176.52 0,-352.53 0,-176.3 0,-352.83 0,-352.83 0,-185.15 1.21,-370.04 2.38,-555.2 0,0 0,-161.12 0,-322.51 0,-161.39 0,-323.06 0,-323.06 208.27,-20.88 289.19,89.07 286.82,299.29 2.37,178.35 -55.94,293.52 -199.94,332.7 0,188.56 0,377.1 0,565.39 14.27,-0.51 28.56,-1.31 44.02,-1.84 267.78,-10.17 438.87,-142.23 541.49,-322.78 103.26,-181.65 141.65,-411.56 140.44,-611.61 1.21,-200.55 -36.93,-424.63 -140.44,-591.24 -102.35,-164.77 -273.71,-271.59 -541.49,-238.17zm-1472.88 1255.29c0,-26.92 0,-54.07 0,-81.22 0,-159.3 -1.19,-318.87 -1.19,-437.95 0,-119.36 0,-199.52 0,-199.52 0,0 -443.9,76.25 -443.9,76.25 0,89.57 0,178.62 0,267.68 147.57,124.05 296.33,248.88 445.09,374.76zm2676.06 -484.37c0,0 466.51,-20.1 466.51,-20.1 0,0 -2.37,-496.71 -2.37,-496.71 0,0 -911.62,57.45 -911.62,57.45 0,0 0,135.28 0,337.92 0,202.39 0,472.17 0,742.19 0,270.03 0,540.33 0,742.72 0,202.13 0,337.14 0,337.14 0,0 911.62,-1.57 911.62,-1.57 0,0 2.37,-500.1 2.37,-500.1 0,0 -466.51,6.28 -466.51,6.28 0,0 0,-369.28 0,-369.28 0,0 397.49,-9.13 397.49,-9.13 0,0 0,-499.57 0,-499.57 0,0 -397.49,14.1 -397.49,14.1 0,0 0,-341.33 0,-341.33zm983.02 51.97c-2.38,-92.96 71.39,-142.06 176.12,-143.89 105.92,-1.56 245.16,67.64 321.32,121.7 0,0 3.57,-535.36 3.57,-535.36 -95.22,-40.74 -264.19,-92.69 -391.55,-90.09 -165.4,4.44 -304.65,69.73 -401.05,183.32 -96.4,113.6 -152.33,276.31 -152.33,476.07 0,234.53 133.05,433.2 265.38,604.58 133.05,172.27 266.59,318.06 265.38,442.64 0,92.72 -84.49,141.03 -199.94,141.54 -108.29,1.06 -266.56,-1.29 -358.21,-54.32 0,0 4.76,508.98 4.76,508.98 131.99,7.44 301.96,2.44 429.32,2.44 340.36,0 567.98,-190.2 567.98,-600.47 1.18,-237.13 -132.18,-440.01 -265.38,-614.49 -132.16,-173.08 -266.59,-318.07 -265.38,-442.65zm2296.85 1234.47c0,0 48.79,413.66 48.79,413.66 0,0 454.62,1.04 454.62,1.04 0,0 -13.13,-76.81 -33.33,-203.96 -20.23,-127.43 -48.79,-325.87 -78.55,-528.79 -146.38,26.37 -387.01,216.52 -397.49,216.12 -1.25,-0.06 -2.38,2.73 -3.56,1.94 2.38,26.64 5.95,73.33 9.51,99.98zm-667.64 -16.47c-15.47,253.05 -16.67,429.07 -16.67,429.07 0,0 396.31,0.53 396.31,0.53 7.13,-119.87 14.27,-240 21.43,-359.87 -69.04,20.91 -138.12,24.49 -208.27,10.44 -65.51,-13.1 -132.1,-42.3 -192.81,-80.17zm1722.05 -1653.33c0,0 -499.82,-62.41 -499.82,-62.41 0,0 3.57,135.03 5.95,336.63 2.37,201.33 7.13,470.07 7.13,737.22 0,267.43 0,534.83 0,735.4 0,200.3 0,334.01 0,334.01 0,0 489.14,6.53 489.14,6.53 226.1,0.25 375.29,-139.54 467.7,-335.32 45.62,-96.67 78.53,-208.14 99.95,-323.29 21.43,-115.17 30.95,-235.06 32.12,-349.17 -1.18,-113.07 -11.89,-233.5 -33.3,-351.24 -21.42,-117.79 -53.41,-233.03 -99.98,-336.1 -93.84,-207.68 -243.95,-365.87 -468.89,-392.26zm-42.84 1611.02c0,0 0,-288.3 0,-576.61 0,-288.57 0,-577.65 0,-577.65 176.13,15.13 264.19,277.34 267.78,591.49 -3.59,312.87 -91.65,567.74 -267.78,562.77zm1422.41 -1505.01c-230.88,-35.53 -391.18,44.79 -487.58,228.09 -48.73,92.71 -84.52,204.24 -105.91,324.62 -21.4,120.37 -30.93,250.18 -29.76,379.45 -1.18,130.06 9.53,261.17 30.95,384.67 21.4,123.5 57.47,239.32 107.1,339.23 97.91,197 254.68,328.01 483.17,328.28 228.5,0 381.99,-123.84 480.82,-304.5 48.7,-89.07 83.3,-192.98 105.91,-303.71 22.61,-110.73 34.52,-229.04 35.71,-346.81 -1.19,-117.79 -13.13,-237.66 -35.71,-352.3 -22.6,-114.62 -57.17,-224.6 -105.91,-322 -98.78,-197.39 -250.3,-318.72 -478.79,-355zm-180.53 964.01c-2.38,-361.18 58.32,-576.36 176.15,-562 116.61,14.36 177.3,238.42 179.68,589.66 -2.38,351.78 -65.45,565.67 -179.68,562.01 -117.83,-3.93 -178.53,-228.51 -176.15,-589.68zm2087.99 1028.07c0,0 -91.71,-152.24 -178.53,-308.68 -88.09,-158.76 -176.12,-321.75 -176.12,-321.75 203.49,-60.07 297.51,-215.71 297.51,-398.5 1.21,-125.36 12.79,-320.03 -74.89,-447.18 -88.38,-128.21 -276.18,-258.5 -501.1,-302.11 0,0 -555.78,-100.03 -555.78,-100.03 0,0 0,181.02 0,350.25 0,169.22 0,394.84 0,620.49 0,225.35 0,451.25 0,620.23 0,168.96 0,281.78 0,281.78 0,0 443.9,2.09 443.9,2.09 0,0 1.21,-151.98 1.21,-303.71 0,-151.73 1.18,-303.2 1.18,-303.2 0,0 69.43,156.02 138.06,308.42 68.23,151.55 139.22,299.82 139.22,299.82 0,0 465.35,2.09 465.35,2.09zm-742.63 -889.23c0,0 0,-453.88 0,-453.88 174.94,25.86 243.98,115.7 241.6,256.99 2.38,142.32 -66.65,214.14 -241.6,196.89z"/>
  <path class="fil4" d="M12103.9 5407.26l-4.23 112.52c147.79,79.14 547.37,78.78 668.89,163.84 144.82,101.36 267.74,262.46 442.37,348.14l-221.9 -265.28c54.17,35.43 90.57,75.96 158.1,105.89 -52.34,-55.76 -113.85,-144.34 -162.68,-206.1 148.42,96.63 13.51,50.2 281.78,183.29 183.54,91.04 438.86,269.52 369.65,505.72 -33.18,113.2 -146.86,218.19 -222.44,239.5 80.24,-89.68 201.46,-201.27 186.4,-363.32 -141.78,63.04 -352.28,338.38 -717.47,-32.08 -121.78,-123.53 -335.2,-506.37 -534.02,-535.68 178.6,224.69 24.68,303.03 70.68,534.22 31.95,160.61 165.65,269.6 327.03,348.23 -212.86,34.09 -258.56,29.49 -382.33,189.79 -100.41,130.03 -133.82,280.69 -260.68,361.99 209.55,91.32 335.29,29.96 454.09,-79.77 409.97,-378.72 500.5,-126.89 973.8,-194.8 83.91,-12.04 172.89,-50.82 231.47,-58.92 85.43,-11.81 152.22,85.55 210.62,122.24 44.96,-238.66 14.33,-355.55 12.28,-557.75 0.88,3.76 59.89,188.59 65.21,200.55 212.24,-408 -122.03,-748.66 -535.05,-890.83 -402.75,-138.66 -970.22,-143.76 -1411.54,-231.4z"/>
  <path class="fil4" d="M10535.73 3883.59c113.8,26.68 235.25,190.67 288.94,256.71 113.99,140.23 122.3,167.95 100.88,408.82 183.56,-328.36 -182.24,-592 -231.98,-712.2 56.16,-60.72 222.69,-87.1 305.08,-108.74 17.11,30.89 37.18,-32.81 -0.46,54.1 92.71,-99.45 258.03,-99.01 335.33,25.9 36.25,58.6 43.85,138.97 4.51,213.36 -34.4,65.05 -89.74,79.43 -153.54,109.54 178.93,18.94 403.16,-181.72 153.69,-444.18 132.18,-24.39 447.78,1.96 573.59,65.93 89.25,45.4 63.57,128.27 33.34,243.1 -64.66,245.49 -183.81,489.06 -357.55,662.49 -55.07,54.95 -286.58,241.3 -366.01,239.67 216.05,20.24 525.73,-228.66 632.21,-378.48 87.72,-123.45 136.88,-220.68 190.67,-370.9 60.38,-168.56 71.8,-324.62 121.75,-484.99 -10.57,56.32 23.08,161.15 -44.74,423.86 -32.78,126.97 -103.53,263.86 -126.8,365.81 72.01,-141.81 158.61,-208.26 277.31,-514.42l49.98 -94.1c-15.61,145.5 -62.83,214.81 -99.16,334.72 115.86,-88.78 191.25,-257.26 256.76,-422.83 401.58,13.51 967.08,421.79 1242.01,695.67 238.08,237.22 406.46,509.95 531.81,821.88 43.07,107.2 60.89,229.6 98.78,337.23 85.47,-478.14 -219.83,-975.83 -403.02,-1230.79 -209.4,-291.41 -665.62,-652.35 -995.72,-795.33 -670.2,-290.29 -1487.86,-236.82 -2137.06,22.49 -270.27,107.97 -374.67,111.07 -330.7,291.23 17.22,-5.35 38.97,-13.2 50.09,-15.55z"/>
  <path class="fil4" d="M12559.29 3385.5c559.04,165.9 692.81,360.77 993.06,494.09 -68.67,-86.19 -177.85,-169.39 -278.78,-243.01 -68.4,-49.93 -290.8,-173.34 -328.22,-211.05 273.65,-30.58 541.72,216.49 675.97,350.95 261.67,262.08 261.65,361.55 406.94,587.59 -62.44,-305.18 -417.81,-719.84 -636.88,-950.16l-103.45 -114.12c303.9,18.52 746.22,729.49 861.87,1069.08 26.65,78.28 117.61,409.82 108.55,479.11 68.26,-338.6 -276.73,-1022.99 -466.98,-1292.04 -58.1,-82.16 -142.7,-170.69 -215.89,-249.86 -97.88,-105.86 -139.16,-150.98 -318.6,-104.17 -117.4,30.62 -637.5,147.47 -697.6,183.6z"/>
  <path class="fil4" d="M11840.21 5445.52c-19.45,-184.96 -51.59,-126.19 -340.32,-261.42 -350.96,-164.36 -749.95,-605.47 -821.5,-932.6l197.39 35.58c-145.03,-47.21 -201.66,-87.38 -318.82,-143.89 23.57,252.71 314.24,640.23 456.44,785.23 180.37,183.93 505.31,428.38 826.81,517.1z"/>
  <path class="fil4" d="M11636.23 4892.64c1.82,1.75 5.85,1.54 6.04,4.56 1.94,33.25 9.86,8.26 11.39,9.92 81.53,87.96 414.62,924.57 432.14,949.37 7.09,-237.35 -135.27,-501.25 -175,-700.36 33.81,51.06 137.76,273.99 144.76,343.12 15.23,-200.19 -186.22,-550.7 -262.64,-708.27 32.17,-38.37 42.09,-31.34 76.67,-67.77 -102.81,27.8 -167.53,82.96 -233.37,169.43z"/>
  <path class="fil4" d="M14119.47 6177.89c55.76,-67.8 93.78,-207.01 60.48,-304.64 -26.89,-78.84 -112.02,-133.19 -198.14,-182.09 -184.34,-104.64 -426.74,-155.76 -659.58,-187.79 3.81,3.91 10.72,3.18 12.66,10.38 5.7,21.3 225.05,86.81 277.9,108.76 91.63,38.09 172.09,79.14 249.15,129.91 146.51,96.51 257.05,216 257.53,425.47z"/>
  <path class="fil4" d="M11106.12 4655.12c234.13,10.91 446.78,-239.72 502.72,-493.08 -136.76,90.72 -87.63,218.3 -345.01,408.03 -61.92,45.65 -96.67,46.69 -157.71,85.05z"/>
  <path class="fil4" d="M12642.42 4411.56c131.75,6.13 251.4,-134.9 282.88,-277.45 -76.95,51.04 -49.31,122.83 -194.13,229.6 -34.84,25.68 -54.41,26.27 -88.75,47.85z"/>
  <path class="fil4" d="M13011.83 4649.73c131.75,6.13 251.4,-134.9 282.88,-277.47 -76.96,51.06 -49.31,122.84 -194.13,229.6 -34.84,25.68 -54.41,26.27 -88.75,47.87z"/>
  <path class="fil4" d="M12575.82 4737.5c131.75,6.13 251.4,-134.9 282.88,-277.45 -76.95,51.04 -49.31,122.83 -194.13,229.59 -34.84,25.7 -54.41,26.29 -88.75,47.87z"/>
  <path class="fil4" d="M12945.23 4975.66c131.74,6.15 251.4,-134.88 282.88,-277.45 -76.96,51.04 -49.31,122.84 -194.13,229.6 -34.86,25.68 -54.41,26.27 -88.75,47.85z"/>
  <path class="fil4" d="M12224.86 4834.35c131.74,6.15 251.4,-134.88 282.88,-277.45 -76.96,51.04 -49.31,122.83 -194.13,229.6 -34.86,25.68 -54.41,26.27 -88.75,47.85z"/>
  <path class="fil4" d="M12594.26 5072.52c131.75,6.13 251.4,-134.9 282.88,-277.45 -76.95,51.04 -49.31,122.83 -194.13,229.59 -34.84,25.68 -54.41,26.29 -88.75,47.87z"/>
  <path class="fil4" d="M11139.99 3821.31c-118.81,41.49 -46.19,217.72 67.04,171.43 104.85,-42.85 56.78,-214.68 -67.04,-171.43z"/>
  <path class="fil5" d="M3315.53 1452.16c100.26,6.69 200.55,13.36 300.81,20.05 59.94,-16.44 122,-16.72 160.45,-76.2 57.47,-41.46 110.93,-90.91 152.38,-144.39 25.4,-28.09 46.81,-64.19 72.2,-92.26 -21.39,-30.74 -70.84,-89.57 -92.23,-120.31 -72.21,82.89 -164.45,149.73 -236.64,232.62 -78.08,39.44 -131.84,56.89 -204.54,48.13 -46.79,-6.67 -93.6,-13.36 -140.38,-20.04 -4.03,50.81 -8.03,101.6 -12.04,152.41z"/>
  <path class="fil4" d="M3994.58 1164.21l-116.32 -89.04c21.08,-27.48 40.62,-50.07 58.73,-79.92 7.94,-13.11 15.45,-26.39 22.3,-39.81 7.91,-15.49 10.07,-24.45 23.92,-36.87 20.11,-18.04 45.41,-33.22 67.01,-46.01l50.59 -28.83c4.65,-2.57 13.16,-6.91 16.98,-9.97 5.34,5.04 6.91,14.76 6.07,19.89 -2.82,17.19 -17.66,24.32 -30.95,33.02 -12.85,8.44 -30.36,16.67 -36.89,25.3l-51.72 67.51c-29.81,38.78 8.98,58.42 33.21,76.98 14.94,11.42 29.87,22.86 44.81,34.3 7.82,5.98 13.51,10.97 22.35,12.64 10.67,2.03 12.75,-1.87 19.82,3.51 -4.84,1.65 -10.83,4.43 -16.2,6.45 -16.13,6.1 -33.67,10.03 -49.66,14.48l-33.56 7.5c-2.6,1.34 -26.61,24.87 -30.49,28.87z"/>
  <path class="fil4" d="M4050.33 968l113.83 87.47c1.29,2.54 1.31,7.48 1.12,9.45 -8.63,2.13 -18.67,6.22 -26.18,15.92 -9.1,11.76 -6.57,18.92 -5.65,28.64 -11.22,-3 -89.12,-65.21 -108.98,-80.43 -12.32,-9.42 -15.89,-19.73 -13.28,-31.28 2.48,-10.92 41.87,-58.76 51.85,-71.82 7.23,-9.41 5.38,-9.92 14.19,-14.89 7.23,-4.1 24.35,-16.19 30.83,-17.89l-57.73 74.83zm55.72 62.55c13.77,20.58 -15.82,40.25 -29.53,21.02 -5.1,-7.12 -5,-18.86 4.41,-25.55 6.92,-4.94 18.91,-4.78 25.12,4.53z"/>
  <path class="fil4" d="M4224.02 997.75c-1.06,-2.84 65.36,-87.74 66.77,-89.59 7.03,-9.19 47.44,-60.01 49.34,-65.66l-119.68 -92.12c-4.18,-2.84 -0.78,-0.85 -3.1,-0.41l-92.4 120.12 9.17 -37.4c12.7,-16.97 58.39,-75.93 71.32,-92.76 14.16,-18.45 23.33,-29.96 42.97,-22.71 7.67,2.84 88.87,66.6 102.25,76.83 8.86,6.76 14.67,11.07 16.72,20.26 1.6,7.09 1.59,15.22 -4.4,23.87 -11.72,17.02 -26.74,35.02 -39.47,51.65 -13.35,17.44 -64.69,86.75 -77.3,101.51 -5.1,5.98 -11.69,2.82 -22.18,6.41z"/>
  <path class="fil4" d="M4266.83 1009.92c7.62,12.22 0.62,26.7 -20.48,27.58 -3.68,0.15 -5.97,0.59 -9.67,0.91 -10.44,0.93 -22.7,3.16 -30.95,-5.17 -5.69,-5.78 -4.97,-14 2.09,-20.48 7.38,-6.79 29.33,-8.78 39.02,-10.63 6.06,-1.16 14.88,-0.4 19.99,7.79z"/>
  <path class="fil4" d="M4235.75 1052.2c2.4,6.35 0.26,13.86 -6.84,18.71 -4.84,3.29 -13.35,3.9 -17.91,4.04 -7.92,0.25 -29.17,5.76 -37.06,-6.97 -8.03,-13 13.44,-24.48 23.15,-23.48 2.19,0.24 7.29,4.25 9.98,5.38 13.23,5.56 21.73,0.94 28.67,2.31z"/>
  <path class="fil4" d="M4166.61 1080.03c17.3,15.33 33.17,7.2 39.91,9.13 1.22,20.13 -20.07,18.76 -27.9,19.67 -4.92,0.59 -7.97,0.87 -12.51,1.18 -23.76,1.57 -31.18,-23.43 0.5,-29.98z"/>
  <path class="fil4" d="M4271.8 802.18c2.16,5.13 0.78,9.95 0.41,17.04l-5.17 102.5c-0.6,11.08 -9.39,12.95 -12.16,5.23l5.81 -119.53c0.65,-9.5 8.57,-11.26 11.11,-5.23z"/>
  <path class="fil4" d="M4258.11 987.03l23.01 -30.28c7.48,3.72 13.42,3.18 18.73,12.16 7.88,13.32 -5.03,26.18 -21.55,22.86 -5.6,-1.13 -15.23,-2.85 -20.18,-4.73z"/>
  <path class="fil4" d="M4283 888.46l2.56 -59.07c0.21,-2.93 -0.35,-7.25 2.44,-9.84 2.43,-2.26 6.76,-2.22 8.94,1.31 2.13,3.44 -1.4,49.04 -1.9,59.23 -0.32,6.81 -2.26,17.19 -12.04,8.36z"/>
  <path class="fil4" d="M4302.05 796.01c-6.54,-5.01 -30.75,-21.27 -33.2,-27.46l2.68 -3.98c6.94,0.9 28.23,19.45 35.44,25.01 7.67,5.9 2.66,12.25 -4.92,6.44z"/>
  <path class="fil4" d="M4242.06 973.69c-2.06,0.51 0.53,2.44 -2.47,-0.28l99.97 -130.65c-11.23,-8.17 -115.26,-89.49 -122.23,-92.79 2.34,-0.44 -1.06,-2.4 3.13,0.44l119.67 92.1c-1.9,5.63 -42.31,56.47 -49.34,65.66 -1.43,1.85 -49.78,62.67 -48.73,65.52z"/>
  <path class="fil6 str1" d="M10319.3 4032.98c43.59,30.36 100.88,47.19 130.78,91.09 15.6,22.9 5.97,61.76 -12.78,82.19 -13.75,15 -40.71,-1.16 -61.05,-1.73"/>
  <path class="fil6 str1" d="M10328.43 4035.92c46.69,25.33 87.43,68.98 140.09,76 27.48,3.68 57.88,-22.36 67.73,-48.28 7.23,-19.02 -19.3,-35.86 -28.95,-53.79"/>
  <path class="fil7" d="M6906.65 4225.61c-12.2,-5.29 6.2,-10.85 -43.31,13.04 -211.71,102.19 -755.48,89.96 -980.67,22.48 -79.49,-23.82 -79.93,-42.53 -96.51,-31.9 94.65,81.65 346.67,117.3 556.34,117.36 192.7,0.03 493.99,-35.15 564.16,-120.98z"/>
  <path class="fil8 str2" d="M1589.12 4181.22c17.02,-184.38 368.84,-34.25 553.5,-48.13 170.97,-12.85 342.27,-42.93 513.39,-32.09 211.01,13.38 415.1,85.68 625.7,104.29 183.76,16.24 369.63,15.07 553.5,0 143.72,-11.76 281.56,-66.99 425.16,-80.22 234.42,-21.61 470.69,-34.28 705.89,-24.07 196.83,8.56 388.86,69.8 585.61,80.22 157.73,8.35 315.43,-18.38 473.27,-24.07 286.01,-10.33 579.71,-89.46 858.34,-24.07 71.61,16.8 1.23,204.61 -72.2,208.58 -1305.62,70.76 -2574.98,8.01 -3882.53,8.01 -256.68,0 -234.78,-63.27 -489.33,-96.26 -182.84,-23.68 -855.36,-17.41 -850.3,-72.2z"/>
  <path class="fil9" d="M376.7 4487.2c48.34,32.42 -1.65,16.72 161.86,110.43 889.15,354.14 1956.02,-48.43 2800.93,3.63 144.42,26.59 304.05,23.21 459.6,14.54 433.45,-24.24 853.17,-138.62 1339.01,-63.39 129.84,20.11 247.58,60.92 380.42,83.24 637.57,107.04 1617.87,67.79 2232.06,-72.37l258.46 -78.17c50.67,-20.35 57.33,-28.86 43.85,-56.69 -25.3,-2.78 -34.31,-10.17 -57.94,-23.15 -39.52,-21.74 -41.13,-19.3 -46.15,-54.89l-19.27 -0.03c-7.07,-51.35 2.73,-40.52 29.92,-76.86 -43.06,9.1 -14.77,7.75 -30.92,-1.18 3.26,-105.11 223.46,-141.38 360.25,-160.01 175.21,-23.87 321.63,-38.36 504.28,-63.57 150.19,-20.73 678.55,-89.62 804.21,-161.34 47.87,-27.31 33.46,-39.21 12.32,-78 -171.21,-108.33 -520.77,-163.77 -800.26,-193.36 -163.73,-17.35 -316.21,-31.23 -490.49,-42.15 -256.62,-16.11 -709.74,-28.11 -933.36,-109.45 -108.6,-39.49 -206.65,-106.1 -325.16,-154.13 -208.68,-84.61 -567.05,-138.54 -867.13,-158.58 -769.52,-51.42 -1343.45,119.84 -1951.3,156.66 -393.42,23.83 -639.23,-18.11 -1013,58.5 -123.47,25.32 -301.17,66.88 -330.45,151.8 -38.78,112.51 226.84,98.13 267.1,191.78 -47.97,54.86 -297.08,77.56 -416.17,91.35 -273.65,31.67 -970.03,154.24 -1162.05,284.47 -258.14,8.1 -925.45,132.59 -1083.14,209.61 -83.15,40.59 -128.11,73.8 -127.5,191.32z"/>
  <path class="fil10" d="M1087.78 3298.35l0 63.61c12.36,28.24 20.95,76.15 36,111.96 15.95,37.99 31.15,73.48 46.84,109.88 100.03,232.09 224.78,390.99 383.38,575.2 40.33,46.84 31.37,35.74 110.74,45.66 95.97,11.97 189.23,21.21 287.3,26.76 1028.84,58.3 4306.9,207.29 5133.99,-169.2 291.74,-132.77 624.49,-227.74 864.91,-436.46 232,-201.46 958.85,-954.75 1137,-1212.52l118.05 -171.75c17.58,-25.34 50.56,-67.6 22.8,-104.6 -43.57,-58.07 -166.09,0.63 -224.66,18.66 -78.47,24.18 -152.64,45.78 -228.19,67.26 -2185.04,528.49 -2630.45,898.03 -5093.42,1134.53 11.98,-76.87 43.07,-127.34 31.05,-211.01 -9.39,-65.23 -34.5,-126.18 -53.28,-183.32 -40.38,-122.9 -58.22,-261.06 -98.62,-383.08 -18.23,-55.01 -36.37,-131.18 -57.48,-180.91 -33.71,-79.36 -45.81,-96.38 -33.92,-198.04 26.14,-223.02 -21.9,-180.72 98.89,-259.09 19.32,-12.51 16.89,-12.19 42.09,-16.44 29.64,-5.01 22.7,-8.72 46.71,-16.27 65.01,66.11 -57.29,244.99 36.52,299.76 73.36,42.82 118.42,-22.99 161.62,-55.56 21.61,-16.3 8.19,-5.19 33.47,-11.61 43.07,-10.92 22.3,-33.77 45.91,-54.57 20.11,-13.33 18.94,-2.15 39.96,-12.11 9.88,-4.67 19.8,-16.19 28.46,-23.29 55.91,-45.82 16.86,-31.34 42.78,-68.21 30.98,-25.17 75.71,16.82 37.03,-106.27 -7.67,-24.42 -21.64,-33.9 -43.4,-43.47 18.89,-21.71 441.62,-304.87 471.69,-324.13 161.12,-103.1 317.28,-215.31 479.93,-314.97 163.76,-100.32 327.14,-201.3 502.03,-292.99 349.06,-183.01 705.33,-366.13 1075.24,-513.94 635.88,-254.07 1415.34,-276.51 2072.27,-120.55 318.85,75.71 574.36,189.64 833.86,355.41 86.85,55.48 147.1,112.02 223.87,176.46 70.05,58.79 134.52,128.33 191.54,202.93 184.93,241.83 318.04,491.77 387.68,813.05 190.42,1092.94 -196.89,1281.88 -308.4,1692.92 -98.16,361.9 106.61,407.81 370.38,569.36l-96.25 -44.13c-639.62,-334.32 31.17,-840.86 95.57,-1337.54 6.67,-58.64 26.2,-223.15 36.71,-262.71 0,-67.98 0,-135.99 0,-203.96 -9.31,-22.57 -22.46,-218.87 -29.83,-266.99 -39.47,-257.71 -100.75,-461.5 -214.87,-690.42 -110.32,-221.3 -276.57,-429.83 -464.98,-585.37 -23.26,-19.21 -70.61,-48.35 -82,-74.01 31.87,-14.48 56.16,-6.31 64.13,-49.47 -344.26,-247.99 -761,-419.82 -1203.41,-499.78 -81.94,-14.82 -163.09,-27.9 -248.11,-37.99 -46.76,-5.54 -239.54,-15.72 -264.02,-25.01l-380.89 0c-16.07,6.64 -301.21,30.14 -351.14,36.94 -303.36,41.35 -659.86,135.4 -926.86,258.77 -182.09,84.13 -363.06,163.92 -540.08,248.96 -135.77,65.23 -394.52,194.5 -521.85,267.18l-501.85 281.38c-84.36,48.72 -163.45,97.38 -247.83,146.56 -46.48,27.09 -213.23,142.59 -253.32,141.57 -74.73,-1.91 -97,12.76 -152.22,45.15 -42.24,24.76 -108.26,-5.65 -156.95,-15.48 -194.45,-39.31 -114.08,18.86 -287.26,-107.29 -154.13,-112.29 -185.47,-193.64 -368.15,-223.05 -93.66,-15.07 -51.22,11.78 -110.43,-34.96 -10.1,-7.97 -22.33,-13.95 -32.09,-19.52 14.23,-13.54 27.08,-26.7 39.13,-40.09 43.94,-48.81 80.64,13.86 47.04,-118.02 -16.61,-65.2 -5.75,-3.9 -2.09,-92.41 73.31,-5.85 40.44,-45.29 15.66,-70.45 -24.87,-25.26 -47.28,-42.21 -53.69,-89.49 37.21,-2 76.45,-0.22 108.67,-12.35 42.52,-15.99 71.42,-82.68 0.97,-86.96 -259.03,-15.73 -85.83,6.57 -244.51,-104.16 -36.21,-25.29 -122.87,-36.8 -162.01,-37.96 -25.74,-0.75 -65.99,5.41 -93.07,7.63 -40.05,3.28 -32.96,26.26 -49.51,50.07 -16.08,23.15 -50.85,49.84 -80.69,116.68 -57.39,128.53 45.12,170.4 62.08,204.04 25.71,51.03 -0.81,59.38 92.38,210.34 -1.26,0.84 -3.45,0.18 -4.09,2.03 -2.81,7.97 -3.85,-1.79 -19.43,10.47 -19.2,15.13 -16.97,47.97 -20.46,83.68 -230.84,181.49 -95.94,770.84 -16.33,995.11 26.48,27.77 3.69,172.33 -2.62,216.44 -14.61,101.95 53.09,42.19 -169.97,183.41 -28.34,17.94 -153.32,91.57 -162.46,116.23 -12.66,34.06 20.61,79.34 42.21,86.52 35.56,11.81 73.99,-22.68 98.59,-38.65 32.64,-21.15 146.86,-101.36 172.43,-109.79 35.59,61.01 4.88,139.93 -6.53,206.6 -18.96,110.89 -5.28,230.37 21.48,338.99 11.6,47.03 24.4,56.54 4.81,104.45 -21.46,52.45 -53.97,135.03 -65.1,189.66 -121.42,5.97 -293.63,-12.79 -419.03,-20.39 -134.75,-8.16 -268.21,-18.27 -401.74,-30.74 -131.09,-12.22 -262.69,-26.32 -393.15,-41.77 -63.95,-7.57 -132.21,-20.05 -196.83,-23.61 -44.25,-2.46 -99.12,-1.6 -132.13,30.3l-24.68 36.31zm7683.98 -3066.28c18.67,11.6 172.71,57.28 206.92,69.08 136.51,47.13 350.81,147.29 469.92,225.94 21.79,14.39 64.51,46.98 85.85,53.35 1.34,-27.36 -17.05,-30.92 -74.03,-64.61 -28.81,-17.02 -56.23,-33.45 -88.74,-50.45 -184.31,-96.45 -293.95,-145.79 -491.14,-210.49 -27.45,-9 -88.88,-39.85 -108.79,-22.82zm-930.66 -133.44c1.22,0.75 3.19,0.18 3.88,1.81 0.69,1.65 3.07,1.38 4.07,1.62 6.16,1.43 7.81,2.01 14.88,2.65l198.7 8.09c74.08,4.63 151.1,12.54 224.12,22.73 116.58,16.29 237.75,36.91 352.14,64.33 55.03,13.19 39.55,9.44 47.54,3.22 -46.59,-39.83 -509.16,-97.78 -624.39,-105.97l-168.7 -8.59c-21.83,-0.98 -47.79,-7.29 -52.25,10.11zm-968.44 122.37c64.79,-12 131.59,-30.71 199.48,-45.19 183,-39.03 421.73,-64.71 612.32,-69.96 17.45,-0.49 44.24,1.13 58.69,-7.22 -12.7,-16.63 -17.71,-11.82 -46.93,-10.79 -263.84,9.42 -480.02,31.84 -739.79,89.32 -39.81,8.81 -77.42,4.56 -83.77,43.84zm-930.3 334.73l-2.29 39.77c23.14,-2.31 166.92,-74.4 201.49,-90.38 69.02,-31.86 138.93,-64.73 207.05,-94.85 160.7,-71.07 242.67,-102.19 403.4,-153.39l27.4 -13.19c-17.26,-16.47 -14.39,-19.48 -44.81,-10.75l-171.9 55.06c-104.36,35.19 -545.88,219.83 -620.34,267.74zm-910.21 464.73c-2.28,28.71 -5.44,40.08 2.68,68.51l403.5 -231.18c43.1,-22.86 408.34,-211.02 416.2,-219.59l-31.2 -27.21c-35.22,13.75 -67.39,33.12 -100.94,49.76 -33.71,16.73 -66.17,32.42 -100.76,50.06 -69.33,35.36 -132.4,65.83 -199.41,102.16l-390.08 207.49zm-1496.02 569.3l-52.45 -20.64 9.85 268.69c23.12,-3.68 137.9,-85.91 171.55,-107.52 29.49,-18.92 158.45,-98.25 174.19,-117.77 -55.25,-7.28 -113.7,-27.99 -165.06,-45.29 -80.77,-27.17 -93.29,-43.84 -138.07,22.54zm-518.96 1770.18l327.14 1.48c45.1,0.04 48.87,-11.95 21.14,-40.38 -43.93,-45.06 38.06,-62.48 -15.86,-123.43 -106.3,-120.12 -1.47,-90.91 -144.16,-291.32 -64.08,23.15 -135.07,244.7 -152.13,323.63 -12,55.34 -20.3,83.3 -36.14,130.02zm1288.14 -1911.06c20.08,74.62 -15.22,34.9 -40.21,75.49 -40.71,66.04 -75.39,117.87 -146.45,103.82 -68.29,-13.53 -39.6,-17.23 -95.85,18.86 -52.63,33.81 -104.92,69.85 -157.79,103.25 -37.55,23.74 -87.6,43.91 -108.41,82.3 -14.35,26.49 -17.82,16.47 -35.21,35.58 22.02,37.66 34.49,44.13 42.8,103.51l57.73 -15.47c11.97,-22.15 3.41,-22.18 19.13,-44.47 17.51,-24.83 15.23,-7.98 6.59,-46.41 -11.47,-51.01 -13.2,-74.96 18.32,-106.29 47.47,-3.1 51.88,19.98 70.51,55.94 26.26,-4.4 218.99,-140.95 255.86,-166.68l635.09 -426.83c22.92,-14.97 113.85,-68.37 127.39,-84.33 -16.22,-23.24 -20.3,-28.12 -43.62,-42.9 -39.83,13.35 -390.96,225.62 -452.66,263.3 -36.36,22.21 -120.05,80.22 -153.2,91.34z"/>
  <path class="fil11" d="M10453.11 4116.29c-0.4,-2.47 -6.69,-9.23 -8.78,-11.7 -19.23,-22.7 -43.65,-56.6 -57.86,-81.37 -24.6,-42.88 -50.65,-98.75 -68.29,-144.82 -12.28,-32.08 -26.11,-66.29 -39.56,-97.81 -11.6,-27.2 -32.67,-72.08 -51.13,-95.66 -10.83,-13.82 -35.4,-32.77 -52.16,-43.19 -38.28,-23.79 -74.12,-30.34 -110.48,-29.95 -62.16,0.66 -140.78,32.61 -190.69,104.92 -25.61,37.11 -37.88,75.68 -41.97,112.49 -1.96,17.69 -1.07,36.33 1,52.14 7.54,57.51 26.3,103.03 78.11,143.31 41.02,31.89 71.62,38.66 112.77,43.34 30.05,3.41 75.39,4.76 105.89,4.85l78.68 1.06c45.16,0.16 87.71,5.1 133.81,12.47 8.94,1.43 18.02,3.59 27.15,5.48 20.52,4.28 48.94,12.32 69.04,19.73l14.47 4.7zm-452.34 -298.93c-7.04,14.63 -9.28,20.32 -11.76,36.28 -5.54,35.69 10.81,74.26 46.81,92.66 46.38,23.73 105.2,-3.47 127.27,-47.9 12.29,-24.74 14.92,-48.34 9.95,-69.74 -12.14,-52.22 -62.79,-79.59 -113.92,-61.98 -20.24,6.98 -46.1,25.24 -58.35,50.67z"/>
  <ellipse class="fil12" cx="10082.57" cy="3863.35" rx="105.68" ry="107.75"/>
 </g>
</svg>
